<svg width="24" height="24" viewBox="0 0 24 24" fill="none" xmlns="http://www.w3.org/2000/svg">
<path opacity="0.32" d="M12 22C13.1046 22 14 21.1046 14 20H10C10 21.1046 10.8954 22 12 22Z" fill="currentColor"/>
<path d="M19 13.586V10C19 6.783 16.815 4.073 13.855 3.258C13.562 2.52 12.846 2 12 2C11.154 2 10.438 2.52 10.145 3.258C7.184 4.074 5 6.783 5 10V13.586L3.293 15.293C3.105 15.481 3 15.735 3 16V17C3 17.553 3.447 18 4 18H20C20.553 18 21 17.553 21 17V16C21 15.735 20.895 15.481 20.707 15.293L19 13.586Z" fill="currentColor"/>
</svg>
